# xmcd CD database file
#
# Track frame offsets:
#	150
#	13355
#	30992
#
# Disc length: 654 seconds
#
# Revision: 0
# Processed by: cddbd v1.5.1PL2 Copyright (c) Steve Scherf et al.
# Submitted via: CDex 1.51
#
DISCID=1a028c03
DTITLE=any for delight - any for delight demo
DYEAR=1900
DGENRE=Punk
TTITLE0=a wish in the limited time
TTITLE1=before
TTITLE2=secret words
EXTD=
EXTT0=
EXTT1=
EXTT2=
PLAYORDER=
